<svg width="48" height="48" viewBox="0 0 48 48" fill="none" xmlns="http://www.w3.org/2000/svg">
<g filter="url(#filter0_d_1626_78)">
<rect x="8" y="6" width="32" height="32" rx="16" fill="white" shape-rendering="crispEdges"/>
<path d="M29.5 21V18" stroke="black" stroke-linecap="round" stroke-linejoin="round"/>
<path d="M31 19.5H28" stroke="black" stroke-linecap="round" stroke-linejoin="round"/>
<path d="M26.5 15.5V17.5" stroke="black" stroke-linecap="round" stroke-linejoin="round"/>
<path d="M27.5 16.5H25.5" stroke="black" stroke-linecap="round" stroke-linejoin="round"/>
<path d="M29.5437 23.5373C28.562 23.8126 27.5248 23.8216 26.5385 23.5634C25.5522 23.3053 24.6524 22.7892 23.9314 22.0683C23.2105 21.3474 22.6945 20.4476 22.4363 19.4613C22.1782 18.475 22.1872 17.4377 22.4625 16.4561C21.4946 16.7254 20.6143 17.2437 19.909 17.9592C19.2038 18.6747 18.6984 19.5625 18.4431 20.5341C18.1877 21.5058 18.1915 22.5273 18.4538 23.4971C18.7162 24.4669 19.228 25.351 19.9384 26.0613C20.6488 26.7717 21.5329 27.2836 22.5026 27.5459C23.4724 27.8083 24.494 27.812 25.4656 27.5567C26.4373 27.3014 27.3251 26.7959 28.0406 26.0907C28.7561 25.3855 29.2743 24.5051 29.5437 23.5373Z" stroke="black" stroke-linecap="round" stroke-linejoin="round"/>
</g>
<defs>
<filter id="filter0_d_1626_78" x="0" y="0" width="48" height="48" filterUnits="userSpaceOnUse" color-interpolation-filters="sRGB">
<feFlood flood-opacity="0" result="BackgroundImageFix"/>
<feColorMatrix in="SourceAlpha" type="matrix" values="0 0 0 0 0 0 0 0 0 0 0 0 0 0 0 0 0 0 127 0" result="hardAlpha"/>
<feOffset dy="2"/>
<feGaussianBlur stdDeviation="4"/>
<feComposite in2="hardAlpha" operator="out"/>
<feColorMatrix type="matrix" values="0 0 0 0 0 0 0 0 0 0 0 0 0 0 0 0 0 0 0.25 0"/>
<feBlend mode="normal" in2="BackgroundImageFix" result="effect1_dropShadow_1626_78"/>
<feBlend mode="normal" in="SourceGraphic" in2="effect1_dropShadow_1626_78" result="shape"/>
</filter>
</defs>
</svg>

